<svg xmlns="http://www.w3.org/2000/svg" xmlns:xlink="http://www.w3.org/1999/xlink" width="1920" zoomAndPan="magnify" viewBox="0 0 1440 809.999993" height="1080" preserveAspectRatio="xMidYMid meet" version="1.0"><defs><g/></defs><g fill="#000000" fill-opacity="1"><g transform="translate(370.218738, 471.749996)"><g><path d="M 99.546875 -134.65625 L 99.546875 -108.375 L 44.6875 -108.375 L 44.6875 -79.984375 L 85.734375 -79.984375 L 85.734375 -54.46875 L 44.6875 -54.46875 L 44.6875 0 L 11.890625 0 L 11.890625 -134.65625 Z M 99.546875 -134.65625 "/></g></g></g><g fill="#000000" fill-opacity="1"><g transform="translate(475.140147, 471.749996)"><g><path d="M 112.78125 -55.234375 C 112.78125 -52.171875 112.585938 -48.976562 112.203125 -45.65625 L 37.984375 -45.65625 C 38.492188 -39 40.632812 -33.910156 44.40625 -30.390625 C 48.175781 -26.878906 52.8125 -25.125 58.3125 -25.125 C 66.5 -25.125 72.1875 -28.578125 75.375 -35.484375 L 110.296875 -35.484375 C 108.503906 -28.453125 105.273438 -22.125 100.609375 -16.5 C 95.941406 -10.875 90.085938 -6.460938 83.046875 -3.265625 C 76.015625 -0.0664062 68.15625 1.53125 59.46875 1.53125 C 48.976562 1.53125 39.640625 -0.703125 31.453125 -5.171875 C 23.273438 -9.648438 16.882812 -16.046875 12.28125 -24.359375 C 7.675781 -32.671875 5.375 -42.390625 5.375 -53.515625 C 5.375 -64.640625 7.640625 -74.359375 12.171875 -82.671875 C 16.710938 -90.984375 23.078125 -97.375 31.265625 -101.84375 C 39.453125 -106.320312 48.851562 -108.5625 59.46875 -108.5625 C 69.820312 -108.5625 79.023438 -106.382812 87.078125 -102.03125 C 95.140625 -97.6875 101.4375 -91.488281 105.96875 -83.4375 C 110.507812 -75.382812 112.78125 -65.984375 112.78125 -55.234375 Z M 79.21875 -63.875 C 79.21875 -69.5 77.296875 -73.972656 73.453125 -77.296875 C 69.617188 -80.617188 64.828125 -82.28125 59.078125 -82.28125 C 53.578125 -82.28125 48.941406 -80.679688 45.171875 -77.484375 C 41.398438 -74.296875 39.066406 -69.757812 38.171875 -63.875 Z M 79.21875 -63.875 "/></g></g></g><g fill="#000000" fill-opacity="1"><g transform="translate(593.296623, 471.749996)"><g><path d="M 112.78125 -55.234375 C 112.78125 -52.171875 112.585938 -48.976562 112.203125 -45.65625 L 37.984375 -45.65625 C 38.492188 -39 40.632812 -33.910156 44.40625 -30.390625 C 48.175781 -26.878906 52.8125 -25.125 58.3125 -25.125 C 66.5 -25.125 72.1875 -28.578125 75.375 -35.484375 L 110.296875 -35.484375 C 108.503906 -28.453125 105.273438 -22.125 100.609375 -16.5 C 95.941406 -10.875 90.085938 -6.460938 83.046875 -3.265625 C 76.015625 -0.0664062 68.15625 1.53125 59.46875 1.53125 C 48.976562 1.53125 39.640625 -0.703125 31.453125 -5.171875 C 23.273438 -9.648438 16.882812 -16.046875 12.28125 -24.359375 C 7.675781 -32.671875 5.375 -42.390625 5.375 -53.515625 C 5.375 -64.640625 7.640625 -74.359375 12.171875 -82.671875 C 16.710938 -90.984375 23.078125 -97.375 31.265625 -101.84375 C 39.453125 -106.320312 48.851562 -108.5625 59.46875 -108.5625 C 69.820312 -108.5625 79.023438 -106.382812 87.078125 -102.03125 C 95.140625 -97.6875 101.4375 -91.488281 105.96875 -83.4375 C 110.507812 -75.382812 112.78125 -65.984375 112.78125 -55.234375 Z M 79.21875 -63.875 C 79.21875 -69.5 77.296875 -73.972656 73.453125 -77.296875 C 69.617188 -80.617188 64.828125 -82.28125 59.078125 -82.28125 C 53.578125 -82.28125 48.941406 -80.679688 45.171875 -77.484375 C 41.398438 -74.296875 39.066406 -69.757812 38.171875 -63.875 Z M 79.21875 -63.875 "/></g></g></g><g fill="#000000" fill-opacity="1"><g transform="translate(711.453089, 471.749996)"><g><path d="M 5.375 -53.703125 C 5.375 -64.703125 7.453125 -74.359375 11.609375 -82.671875 C 15.765625 -90.984375 21.421875 -97.375 28.578125 -101.84375 C 35.742188 -106.320312 43.738281 -108.5625 52.5625 -108.5625 C 59.59375 -108.5625 66.015625 -107.09375 71.828125 -104.15625 C 77.648438 -101.21875 82.222656 -97.253906 85.546875 -92.265625 L 85.546875 -141.9375 L 118.34375 -141.9375 L 118.34375 0 L 85.546875 0 L 85.546875 -15.34375 C 82.472656 -10.226562 78.09375 -6.132812 72.40625 -3.0625 C 66.71875 0 60.101562 1.53125 52.5625 1.53125 C 43.738281 1.53125 35.742188 -0.734375 28.578125 -5.265625 C 21.421875 -9.804688 15.765625 -16.265625 11.609375 -24.640625 C 7.453125 -33.023438 5.375 -42.710938 5.375 -53.703125 Z M 85.546875 -53.515625 C 85.546875 -61.703125 83.273438 -68.160156 78.734375 -72.890625 C 74.203125 -77.617188 68.671875 -79.984375 62.140625 -79.984375 C 55.617188 -79.984375 50.085938 -77.648438 45.546875 -72.984375 C 41.015625 -68.316406 38.75 -61.890625 38.75 -53.703125 C 38.75 -45.523438 41.015625 -39.035156 45.546875 -34.234375 C 50.085938 -29.441406 55.617188 -27.046875 62.140625 -27.046875 C 68.671875 -27.046875 74.203125 -29.410156 78.734375 -34.140625 C 83.273438 -38.867188 85.546875 -45.328125 85.546875 -53.515625 Z M 85.546875 -53.515625 "/></g></g></g><g fill="#000000" fill-opacity="1"><g transform="translate(841.699183, 471.749996)"><g><path d="M 32.21875 -119.5 L 32.21875 -74.8125 L 80.9375 -74.8125 L 80.9375 -60.421875 L 32.21875 -60.421875 L 32.21875 -14.390625 L 86.703125 -14.390625 L 86.703125 0 L 14.765625 0 L 14.765625 -133.890625 L 86.703125 -133.890625 L 86.703125 -119.5 Z M 32.21875 -119.5 "/></g></g></g><g fill="#000000" fill-opacity="1"><g transform="translate(940.09897, 471.749996)"><g><path d="M 8.25 -52.9375 C 8.25 -63.675781 10.421875 -73.101562 14.765625 -81.21875 C 19.117188 -89.34375 25.097656 -95.644531 32.703125 -100.125 C 40.304688 -104.601562 48.84375 -106.84375 58.3125 -106.84375 C 66.5 -106.84375 74.109375 -104.953125 81.140625 -101.171875 C 88.171875 -97.398438 93.539062 -92.445312 97.25 -86.3125 L 97.25 -141.9375 L 114.890625 -141.9375 L 114.890625 0 L 97.25 0 L 97.25 -19.75 C 93.789062 -13.488281 88.671875 -8.34375 81.890625 -4.3125 C 75.117188 -0.289062 67.195312 1.71875 58.125 1.71875 C 48.78125 1.71875 40.304688 -0.578125 32.703125 -5.171875 C 25.097656 -9.773438 19.117188 -16.234375 14.765625 -24.546875 C 10.421875 -32.859375 8.25 -42.320312 8.25 -52.9375 Z M 97.25 -52.75 C 97.25 -60.675781 95.648438 -67.578125 92.453125 -73.453125 C 89.253906 -79.335938 84.9375 -83.847656 79.5 -86.984375 C 74.070312 -90.117188 68.097656 -91.6875 61.578125 -91.6875 C 55.054688 -91.6875 49.109375 -90.148438 43.734375 -87.078125 C 38.359375 -84.015625 34.070312 -79.539062 30.875 -73.65625 C 27.6875 -67.769531 26.09375 -60.863281 26.09375 -52.9375 C 26.09375 -44.882812 27.6875 -37.882812 30.875 -31.9375 C 34.070312 -25.988281 38.359375 -21.445312 43.734375 -18.3125 C 49.109375 -15.1875 55.054688 -13.625 61.578125 -13.625 C 68.097656 -13.625 74.070312 -15.1875 79.5 -18.3125 C 84.9375 -21.445312 89.253906 -25.988281 92.453125 -31.9375 C 95.648438 -37.882812 97.25 -44.820312 97.25 -52.75 Z M 97.25 -52.75 "/></g></g></g></svg>